<?xml version="1.0" encoding="UTF-8" standalone="no"?>
<!DOCTYPE svg PUBLIC "-//W3C//DTD SVG 1.1//EN" "http://www.w3.org/Graphics/SVG/1.1/DTD/svg11.dtd">
<svg width="100%" height="100%" viewBox="0 0 535 535" version="1.1" xmlns="http://www.w3.org/2000/svg" xmlns:xlink="http://www.w3.org/1999/xlink" xml:space="preserve" xmlns:serif="http://www.serif.com/" style="fill-rule:evenodd;clip-rule:evenodd;stroke-linejoin:round;stroke-miterlimit:2;">
    <g transform="matrix(1,0,0,1,-6.6585,-6.6585)">
        <g transform="matrix(1,0,0,1,-6.99977,3.24917)">
            <path d="M354.022,97.389C354.022,97.538 231.65,97.54 231.543,97.521L430.746,445.797C430.77,445.807 548.317,408.157 548.317,408.157C548.347,408.133 354.022,97.389 354.022,97.389Z" style="fill:rgb(31,188,253);fill-rule:nonzero;"/>
        </g>
        <g transform="matrix(1,0,0,1,7.00023,0.249174)">
            <path d="M94.536,441.229L188.344,240.99L188.344,434.716C188.344,452.053 206.723,451.059 210.625,451.059C210.625,451.059 401.481,451.098 401.524,451.03L208.12,106.599C206.188,103.214 204.92,100.697 204.922,100.696L153.834,189.649C151.902,193.034 147.58,197.318 144.167,199.211C96.326,225.756 0.021,277.68 0,277.66C-0.083,277.579 22.379,304.744 34.858,321.87C42.116,331.834 48.465,342.946 53.668,353.972C55.332,357.5 55.016,363.142 53.085,366.536C53.085,366.536 7.096,450.847 6.803,450.874L84.278,451.059C88.177,451.06 92.767,444.71 94.536,441.229ZM39.982,286.958C38.232,285.408 38.433,283.343 40.508,282.253C60.637,271.715 155.87,221.732 182.349,205.543C184.348,204.319 185.074,204.969 184.013,207.054L93.743,384.438C92.681,386.523 91.467,386.351 90.951,384.065C87.556,369.07 73.776,316.85 39.982,286.958Z" style="fill:rgb(8,88,156);fill-rule:nonzero;"/>
        </g>
        <g transform="matrix(1,0,0,1,7.00023,0.249174)">
            <path d="M39.982,286.958C38.232,285.408 38.433,283.343 40.508,282.253C60.637,271.715 155.87,221.732 182.349,205.543C184.348,204.319 185.074,204.969 184.013,207.054L93.743,384.438C92.681,386.523 91.467,386.351 90.951,384.065C87.556,369.07 73.776,316.85 39.982,286.958Z" style="fill:rgb(68,209,253);fill-rule:nonzero;"/>
        </g>
    </g>
</svg>
